<svg width="120" height="10" xmlns="http://www.w3.org/2000/svg">

 <g>
  <title>background</title>
  <rect fill="none" id="canvas_background" height="12" width="122" y="-1" x="-1"/>
 </g>
 <g>
  <title>Layer 1</title>
  <g stroke="null" id="svg_11">
   <path stroke="null" fill="#ecf1f8" id="svg_1" d="m118.207884,3.9723q0,0.133116 -0.157318,0.290434l-2.196408,2.141952l0.520361,3.025355q0.006051,0.042355 0.006051,0.121014q0,0.127065 -0.063532,0.2148t-0.184547,0.087735q-0.114964,0 -0.242028,-0.072609l-2.716769,-1.427968l-2.716769,1.427968q-0.133116,0.072609 -0.242028,0.072609q-0.127065,0 -0.190597,-0.087735t-0.063532,-0.2148q0,-0.036304 0.012101,-0.121014l0.520361,-3.025355l-2.202459,-2.141952q-0.151268,-0.163369 -0.151268,-0.290434q0,-0.223876 0.33884,-0.278333l3.037457,-0.441702l1.36141,-2.753073q0.114964,-0.248079 0.296485,-0.248079t0.296485,0.248079l1.36141,2.753073l3.037457,0.441702q0.33884,0.054456 0.33884,0.278333z"/>
   <path stroke="null" fill="#ecf1f8" id="svg_2" d="m73.595798,3.9723q0,0.133115 -0.157319,0.290434l-2.196408,2.141952l0.520361,3.025355q0.006051,0.042355 0.006051,0.121015q0,0.127065 -0.063533,0.2148t-0.184547,0.087735q-0.114964,0 -0.242028,-0.072609l-2.716769,-1.427968l-2.716769,1.427968q-0.133115,0.072609 -0.242028,0.072609q-0.127065,0 -0.190597,-0.087735t-0.063533,-0.2148q0,-0.036304 0.012102,-0.121015l0.520361,-3.025355l-2.202459,-2.141952q-0.151268,-0.163369 -0.151268,-0.290434q0,-0.223877 0.33884,-0.278333l3.037457,-0.441702l1.36141,-2.753074q0.114963,-0.248078 0.296484,-0.248078t0.296484,0.248078l1.36141,2.753074l3.037457,0.441702q0.33884,0.054456 0.33884,0.278333z"/>
   <path stroke="null" fill="#ecf1f8" id="svg_3" d="m84.864531,3.9723q0,0.133117 -0.157319,0.290435l-2.196408,2.141952l0.520361,3.025355q0.006051,0.042355 0.006051,0.121015q0,0.127065 -0.063533,0.2148t-0.184547,0.087735q-0.114964,0 -0.242028,-0.072609l-2.716769,-1.427968l-2.716769,1.427968q-0.133115,0.072609 -0.242028,0.072609q-0.127066,0 -0.190597,-0.087735t-0.063533,-0.2148q0,-0.036304 0.012102,-0.121015l0.520361,-3.025355l-2.202459,-2.141952q-0.151268,-0.163369 -0.151268,-0.290435q0,-0.223876 0.33884,-0.278332l3.037457,-0.441703l1.361409,-2.753073q0.114964,-0.248079 0.296485,-0.248079t0.296484,0.248079l1.36141,2.753073l3.037457,0.441703q0.33884,0.054456 0.33884,0.278332z"/>
   <path stroke="null" fill="#ecf1f8" id="svg_4" d="m96.02457,3.9723q0,0.133115 -0.157319,0.290434l-2.196408,2.141952l0.520361,3.025355q0.006051,0.042355 0.006051,0.121015q0,0.127065 -0.063533,0.2148t-0.184547,0.087735q-0.114964,0 -0.242028,-0.072609l-2.716769,-1.427967l-2.716769,1.427967q-0.133115,0.072609 -0.242028,0.072609q-0.127065,0 -0.190597,-0.087735t-0.063533,-0.2148q0,-0.036304 0.012102,-0.121015l0.520361,-3.025355l-2.202459,-2.141952q-0.151268,-0.163369 -0.151268,-0.290434q0,-0.223877 0.33884,-0.278333l3.037457,-0.441702l1.36141,-2.753074q0.114963,-0.248078 0.296484,-0.248078t0.296484,0.248078l1.36141,2.753074l3.037457,0.441702q0.33884,0.054456 0.33884,0.278333z"/>
   <path stroke="null" fill="#ecf1f8" id="svg_5" d="m107.155787,3.9723q0,0.133117 -0.157319,0.290435l-2.196408,2.141952l0.520361,3.025355q0.006051,0.042355 0.006051,0.121015q0,0.127065 -0.063533,0.2148t-0.184547,0.087735q-0.114964,0 -0.242028,-0.072609l-2.716769,-1.427968l-2.716769,1.427968q-0.133117,0.072609 -0.242028,0.072609q-0.127066,0 -0.190597,-0.087735t-0.063533,-0.2148q0,-0.036304 0.012102,-0.121015l0.520361,-3.025355l-2.20246,-2.141952q-0.151267,-0.163369 -0.151267,-0.290435q0,-0.223876 0.33884,-0.278332l3.037457,-0.441703l1.361409,-2.753073q0.114964,-0.248079 0.296485,-0.248079t0.296484,0.248079l1.36141,2.753073l3.037457,0.441703q0.33884,0.054456 0.33884,0.278332z"/>
   <path stroke="null" fill="#fcaf18" id="svg_6" d="m54.828167,3.9723q0,0.133115 -0.157319,0.290435l-2.196408,2.141951l0.520361,3.025356q0.006051,0.042354 0.006051,0.121014q0,0.127065 -0.063533,0.2148t-0.184547,0.087735q-0.114964,0 -0.242028,-0.072609l-2.716769,-1.427967l-2.716769,1.427967q-0.133115,0.072609 -0.242028,0.072609q-0.127066,0 -0.190597,-0.087735t-0.063533,-0.2148q0,-0.036304 0.012102,-0.121014l0.520361,-3.025356l-2.202459,-2.141951q-0.151268,-0.16337 -0.151268,-0.290435q0,-0.223876 0.33884,-0.278333l3.037457,-0.441702l1.361409,-2.753073q0.114964,-0.248079 0.296485,-0.248079t0.296484,0.248079l1.36141,2.753073l3.037457,0.441702q0.33884,0.054457 0.33884,0.278333z"/>
   <path stroke="null" fill="#fcaf18" id="svg_7" d="m10.216081,3.9723q0,0.133115 -0.157319,0.290434l-2.196408,2.141952l0.520361,3.025355q0.006051,0.042355 0.006051,0.121015q0,0.127065 -0.063533,0.2148t-0.184547,0.087735q-0.114964,0 -0.242028,-0.072609l-2.716769,-1.427968l-2.716769,1.427968q-0.133115,0.072609 -0.242028,0.072609q-0.127065,0 -0.190597,-0.087735t-0.063533,-0.2148q0,-0.036304 0.012102,-0.121015l0.520361,-3.025355l-2.202459,-2.141952q-0.151268,-0.163369 -0.151268,-0.290434q0,-0.223877 0.33884,-0.278333l3.037457,-0.441702l1.36141,-2.753074q0.114963,-0.248078 0.296484,-0.248078t0.296484,0.248078l1.36141,2.753074l3.037457,0.441702q0.33884,0.054456 0.33884,0.278333z"/>
   <path stroke="null" fill="#fcaf18" id="svg_8" d="m21.484814,3.9723q0,0.133117 -0.157319,0.290435l-2.196408,2.141952l0.520361,3.025355q0.006051,0.042355 0.006051,0.121015q0,0.127065 -0.063533,0.2148t-0.184547,0.087735q-0.114964,0 -0.242028,-0.072609l-2.716769,-1.427968l-2.716769,1.427968q-0.133115,0.072609 -0.242028,0.072609q-0.127066,0 -0.190597,-0.087735t-0.063533,-0.2148q0,-0.036304 0.012102,-0.121015l0.520361,-3.025355l-2.202459,-2.141952q-0.151268,-0.163369 -0.151268,-0.290435q0,-0.223876 0.33884,-0.278332l3.037457,-0.441703l1.361409,-2.753073q0.114964,-0.248079 0.296485,-0.248079t0.296484,0.248079l1.36141,2.753073l3.037457,0.441703q0.33884,0.054456 0.33884,0.278332z"/>
   <path stroke="null" fill="#fcaf18" id="svg_9" d="m32.644853,3.9723q0,0.133115 -0.157319,0.290434l-2.196408,2.141952l0.520361,3.025355q0.006051,0.042355 0.006051,0.121015q0,0.127065 -0.063533,0.2148t-0.184547,0.087735q-0.114964,0 -0.242028,-0.072609l-2.716769,-1.427967l-2.716769,1.427967q-0.133115,0.072609 -0.242028,0.072609q-0.127065,0 -0.190597,-0.087735t-0.063533,-0.2148q0,-0.036304 0.012102,-0.121015l0.520361,-3.025355l-2.202459,-2.141952q-0.151268,-0.163369 -0.151268,-0.290434q0,-0.223877 0.33884,-0.278333l3.037457,-0.441702l1.36141,-2.753074q0.114963,-0.248078 0.296484,-0.248078t0.296484,0.248078l1.36141,2.753074l3.037457,0.441702q0.33884,0.054456 0.33884,0.278333z"/>
   <path stroke="null" fill="#fcaf18" id="svg_10" d="m43.77607,3.9723q0,0.133117 -0.157319,0.290435l-2.196408,2.141952l0.520361,3.025355q0.006051,0.042355 0.006051,0.121015q0,0.127065 -0.063533,0.2148t-0.184547,0.087735q-0.114964,0 -0.242028,-0.072609l-2.716769,-1.427968l-2.716769,1.427968q-0.133117,0.072609 -0.242028,0.072609q-0.127066,0 -0.190597,-0.087735t-0.063533,-0.2148q0,-0.036304 0.012102,-0.121015l0.520361,-3.025355l-2.20246,-2.141952q-0.151267,-0.163369 -0.151267,-0.290435q0,-0.223876 0.33884,-0.278332l3.037457,-0.441703l1.361409,-2.753073q0.114964,-0.248079 0.296485,-0.248079t0.296484,0.248079l1.36141,2.753073l3.037457,0.441703q0.33884,0.054456 0.33884,0.278332z"/>
  </g>
 </g>
</svg>